<svg width="187" height="55" viewBox="0 0 187 55" fill="none" xmlns="http://www.w3.org/2000/svg">
<path d="M185.97 48.5698C185.97 51.4489 183.589 53.7809 180.644 53.7809H6.37133C3.4281 53.7809 1.03906 51.4489 1.03906 48.5698V7.01284C1.03906 4.13516 3.4281 1.79492 6.37133 1.79492H180.643C183.589 1.79492 185.968 4.13516 185.968 7.01284L185.97 48.5698Z" fill="#202430"/>
<path d="M180.082 1.8578C183.289 1.8578 185.899 4.40203 185.899 7.52871V48.0472C185.899 51.1739 183.289 53.7181 180.082 53.7181H6.92624C3.71939 53.7181 1.10993 51.1739 1.10993 48.0472V7.52871C1.10993 4.40203 3.71939 1.8578 6.92624 1.8578H180.082ZM180.082 0.775621H6.92624C3.11854 0.775621 0 3.8162 0 7.52871V48.0472C0 51.7597 3.11854 54.8003 6.92624 54.8003H180.082C183.89 54.8003 187.008 51.7597 187.008 48.0472V7.52871C187.008 3.8162 183.89 0.775621 180.082 0.775621Z" fill="#A6A6A6"/>
<path d="M41.7374 27.4967C41.6973 23.1436 45.3931 21.0259 45.5621 20.9273C43.469 17.9519 40.2248 17.5453 39.0847 17.5129C36.3599 17.2333 33.7169 19.1026 32.3288 19.1026C30.9131 19.1026 28.7757 17.5399 26.472 17.5858C23.5076 17.6304 20.7343 19.3038 19.2133 21.9024C16.0743 27.2009 18.4154 34.9872 21.4228 39.27C22.9272 41.3675 24.685 43.7095 26.9859 43.6271C29.237 43.5366 30.0778 42.2278 32.7943 42.2278C35.4858 42.2278 36.2754 43.6271 38.622 43.5744C41.0379 43.5366 42.5589 41.4674 44.0106 39.351C45.7491 36.9469 46.4473 34.5793 46.475 34.4577C46.4182 34.4388 41.7832 32.7141 41.7374 27.4967Z" fill="white"/>
<path d="M37.3047 14.6955C38.5154 13.2193 39.3437 11.2109 39.1138 9.17285C37.3615 9.24849 35.17 10.3546 33.908 11.7985C32.7915 13.0707 31.7941 15.1561 32.0518 17.1172C34.0202 17.2603 36.0413 16.1488 37.3047 14.6955Z" fill="white"/>
<path d="M74.3094 43.3251H71.1635L69.4402 38.0455H63.4504L61.8089 43.3251H58.7461L64.6805 25.3511H68.3459L74.3094 43.3251ZM68.9207 35.8305L67.3623 31.1371C67.1975 30.6576 66.8886 29.5285 66.4328 27.7511H66.3774C66.196 28.5156 65.9037 29.6447 65.5019 31.1371L63.9712 35.8305H68.9207Z" fill="white"/>
<path d="M89.5745 36.6861C89.5745 38.8903 88.9636 40.6326 87.7418 41.9116C86.6475 43.0502 85.2886 43.6188 83.6664 43.6188C81.9155 43.6188 80.6577 43.0056 79.8916 41.7793H79.8362V48.6066H76.8829V34.6318C76.8829 33.2461 76.8455 31.8239 76.7734 30.3652H79.3708L79.5356 32.4195H79.591C80.5759 30.8717 82.0706 30.0991 84.0765 30.0991C85.6446 30.0991 86.9536 30.7028 88.0009 31.9116C89.0509 33.1218 89.5745 34.7128 89.5745 36.6861ZM86.5658 36.7914C86.5658 35.53 86.2749 34.49 85.6903 33.6715C85.0517 32.8179 84.1942 32.3911 83.1193 32.3911C82.3906 32.3911 81.7285 32.6288 81.137 33.0975C80.5441 33.5702 80.1562 34.1874 79.9747 34.9519C79.8833 35.3085 79.8376 35.6002 79.8376 35.8298V37.9908C79.8376 38.9335 80.134 39.729 80.7269 40.3787C81.3198 41.0283 82.09 41.3525 83.0375 41.3525C84.1499 41.3525 85.0157 40.9338 85.6349 40.0991C86.2555 39.2631 86.5658 38.161 86.5658 36.7914Z" fill="white"/>
<path d="M104.858 36.6861C104.858 38.8903 104.247 40.6326 103.024 41.9116C101.931 43.0502 100.572 43.6188 98.9502 43.6188C97.1992 43.6188 95.9414 43.0056 95.1768 41.7793H95.1214V48.6066H92.168V34.6318C92.168 33.2461 92.1306 31.8239 92.0586 30.3652H94.6559L94.8208 32.4195H94.8762C95.8597 30.8717 97.3544 30.0991 99.3616 30.0991C100.928 30.0991 102.237 30.7028 103.287 31.9116C104.333 33.1218 104.858 34.7128 104.858 36.6861ZM101.85 36.7914C101.85 35.53 101.557 34.49 100.973 33.6715C100.334 32.8179 99.4794 32.3911 98.403 32.3911C97.673 32.3911 97.0122 32.6288 96.4194 33.0975C95.8265 33.5702 95.44 34.1874 95.2585 34.9519C95.1685 35.3085 95.1214 35.6002 95.1214 35.8298V37.9908C95.1214 38.9335 95.4178 39.729 96.0079 40.3787C96.6008 41.027 97.371 41.3525 98.3213 41.3525C99.4337 41.3525 100.299 40.9338 100.919 40.0991C101.539 39.2631 101.85 38.161 101.85 36.7914Z" fill="white"/>
<path d="M121.956 38.2848C121.956 39.8137 121.412 41.0576 120.319 42.0179C119.118 43.0673 117.446 43.5913 115.297 43.5913C113.314 43.5913 111.723 43.2186 110.52 42.4717L111.204 40.0716C112.5 40.8361 113.923 41.2197 115.473 41.2197C116.586 41.2197 117.451 40.9738 118.073 40.4849C118.692 39.996 119.001 39.3396 119.001 38.5211C119.001 37.7918 118.747 37.1773 118.235 36.6789C117.727 36.1805 116.878 35.7172 115.692 35.2891C112.464 34.1154 110.852 32.3961 110.852 30.1351C110.852 28.6576 111.417 27.4461 112.549 26.5033C113.677 25.5593 115.181 25.0879 117.062 25.0879C118.74 25.0879 120.133 25.3729 121.246 25.9415L120.507 28.2889C119.468 27.7378 118.294 27.4623 116.979 27.4623C115.94 27.4623 115.128 27.7121 114.546 28.2092C114.055 28.6535 113.808 29.1951 113.808 29.8367C113.808 30.5471 114.089 31.1346 114.654 31.5965C115.146 32.0233 116.04 32.4852 117.336 32.9836C118.922 33.6062 120.087 34.3342 120.837 35.1689C121.584 36.0009 121.956 37.0422 121.956 38.2848Z" fill="white"/>
<path d="M131.72 32.5261H128.465V38.8186C128.465 40.4191 129.039 41.2186 130.188 41.2186C130.716 41.2186 131.154 41.1741 131.5 41.0849L131.582 43.2716C131 43.4836 130.234 43.5903 129.285 43.5903C128.119 43.5903 127.207 43.2432 126.549 42.5503C125.894 41.8561 125.564 40.6919 125.564 39.0563V32.5234H123.625V30.3624H125.564V27.9893L128.465 27.1357V30.3624H131.72V32.5261Z" fill="white"/>
<path d="M146.411 36.7384C146.411 38.7305 145.826 40.3661 144.66 41.6452C143.436 42.962 141.813 43.6184 139.789 43.6184C137.839 43.6184 136.286 42.9877 135.128 41.7262C133.97 40.4647 133.391 38.8724 133.391 36.9531C133.391 34.9448 133.986 33.2997 135.182 32.0207C136.374 30.7403 137.984 30.1001 140.008 30.1001C141.958 30.1001 143.528 30.7308 144.712 31.9937C145.845 33.2187 146.411 34.8002 146.411 36.7384ZM143.346 36.8316C143.346 35.6363 143.085 34.6112 142.554 33.7562C141.935 32.7216 141.05 32.2057 139.903 32.2057C138.716 32.2057 137.814 32.723 137.195 33.7562C136.664 34.6125 136.402 35.6538 136.402 36.8856C136.402 38.0809 136.664 39.106 137.195 39.9596C137.833 40.9942 138.725 41.5101 139.876 41.5101C141.004 41.5101 141.889 40.9834 142.528 39.9326C143.072 39.0614 143.346 38.0255 143.346 36.8316Z" fill="white"/>
<path d="M156.006 32.8976C155.714 32.8449 155.402 32.8179 155.076 32.8179C154.037 32.8179 153.233 33.2001 152.668 33.9659C152.176 34.6412 151.93 35.4948 151.93 36.5254V43.3257H148.978L149.005 34.4468C149.005 32.953 148.968 31.5929 148.895 30.3665H151.467L151.575 32.8463H151.657C151.968 31.994 152.46 31.3079 153.133 30.7933C153.791 30.3301 154.502 30.0991 155.268 30.0991C155.541 30.0991 155.788 30.118 156.006 30.1518V32.8976Z" fill="white"/>
<path d="M169.216 36.2322C169.216 36.7481 169.181 37.183 169.108 37.5382H160.248C160.282 38.8186 160.71 39.7978 161.533 40.4731C162.28 41.0768 163.245 41.3794 164.431 41.3794C165.743 41.3794 166.94 41.1754 168.016 40.7662L168.479 42.7651C167.221 43.2999 165.736 43.566 164.022 43.566C161.961 43.566 160.343 42.9744 159.166 41.7927C157.991 40.6109 157.402 39.0239 157.402 37.0331C157.402 35.0787 157.95 33.4512 159.045 32.1533C160.192 30.7676 161.742 30.0747 163.693 30.0747C165.609 30.0747 167.059 30.7676 168.044 32.1533C168.824 33.2541 169.216 34.6155 169.216 36.2322ZM166.4 35.4853C166.419 34.6317 166.226 33.8942 165.826 33.2716C165.315 32.4707 164.529 32.0709 163.472 32.0709C162.507 32.0709 161.722 32.4612 161.122 33.2446C160.63 33.8672 160.338 34.6141 160.248 35.4839H166.4V35.4853Z" fill="white"/>
<path d="M67.9404 14.294C67.9404 15.8837 67.4514 17.0803 66.4748 17.8839C65.5703 18.6254 64.2848 18.9968 62.6197 18.9968C61.7941 18.9968 61.0876 18.9617 60.4961 18.8915V10.2057C61.2677 10.0841 62.0988 10.022 62.9965 10.022C64.5826 10.022 65.7781 10.3583 66.5843 11.0309C67.4874 11.7913 67.9404 12.8785 67.9404 14.294ZM66.4097 14.3331C66.4097 13.3026 66.1299 12.5125 65.5703 11.9615C65.0106 11.4118 64.1933 11.1362 63.117 11.1362C62.6599 11.1362 62.2706 11.1659 61.9478 11.2281V17.8312C62.1265 17.8583 62.4535 17.8704 62.9286 17.8704C64.0396 17.8704 64.897 17.5692 65.501 16.9668C66.105 16.3645 66.4097 15.4866 66.4097 14.3331Z" fill="white"/>
<path d="M76.0598 15.6828C76.0598 16.6619 75.773 17.4642 75.1995 18.0936C74.5983 18.7405 73.8018 19.0633 72.8072 19.0633C71.8486 19.0633 71.0853 18.7541 70.516 18.1328C69.948 17.5128 69.6641 16.7308 69.6641 15.7881C69.6641 14.8021 69.9563 13.9931 70.5437 13.3651C71.131 12.7371 71.9206 12.4224 72.9152 12.4224C73.8738 12.4224 74.644 12.7317 75.2272 13.3516C75.7813 13.954 76.0598 14.7319 76.0598 15.6828ZM74.554 15.7287C74.554 15.1412 74.4238 14.6374 74.1647 14.2173C73.86 13.7095 73.4264 13.4556 72.8626 13.4556C72.2794 13.4556 71.8361 13.7095 71.5314 14.2173C71.271 14.6374 71.1421 15.1493 71.1421 15.7543C71.1421 16.3419 71.2723 16.8456 71.5314 17.2657C71.8458 17.7735 72.2836 18.0274 72.8488 18.0274C73.4028 18.0274 73.8378 17.7695 74.1509 17.2522C74.4196 16.824 74.554 16.3162 74.554 15.7287Z" fill="white"/>
<path d="M86.9378 12.5518L84.8946 18.9186H83.5647L82.7183 16.1539C82.5036 15.4637 82.3291 14.7776 82.1933 14.0969H82.167C82.0409 14.7965 81.8664 15.4812 81.642 16.1539L80.743 18.9186H79.3979L77.4766 12.5518H78.9685L79.7068 15.5785C79.8855 16.2943 80.0323 16.9764 80.1501 17.622H80.1764C80.2845 17.0898 80.4632 16.4118 80.7153 15.592L81.642 12.5531H82.825L83.7129 15.5272C83.9277 16.2524 84.1022 16.9507 84.2366 17.6233H84.2767C84.3751 16.9683 84.5233 16.27 84.72 15.5272L85.5124 12.5531H86.9378V12.5518Z" fill="white"/>
<path d="M94.4699 18.9185H93.0182V15.2718C93.0182 14.1481 92.5804 13.5863 91.7022 13.5863C91.2714 13.5863 90.9237 13.7402 90.6536 14.0495C90.3862 14.3588 90.2505 14.7235 90.2505 15.1408V18.9171H88.7987V14.371C88.7987 13.8118 88.7807 13.2054 88.7461 12.549H90.0219L90.0898 13.5444H90.13C90.299 13.2351 90.5511 12.9798 90.8821 12.7759C91.2756 12.5382 91.7161 12.418 92.1981 12.418C92.8076 12.418 93.3146 12.6098 93.7177 12.9947C94.2192 13.466 94.4699 14.1697 94.4699 15.1043V18.9185Z" fill="white"/>
<path d="M98.4699 18.9186H97.0195V9.63037H98.4699V18.9186Z" fill="white"/>
<path d="M107.017 15.6828C107.017 16.6619 106.73 17.4642 106.157 18.0936C105.555 18.7405 104.757 19.0633 103.764 19.0633C102.804 19.0633 102.041 18.7541 101.473 18.1328C100.905 17.5128 100.621 16.7308 100.621 15.7881C100.621 14.8021 100.913 13.9931 101.501 13.3651C102.088 12.7371 102.878 12.4224 103.871 12.4224C104.831 12.4224 105.6 12.7317 106.184 13.3516C106.738 13.954 107.017 14.7319 107.017 15.6828ZM105.51 15.7287C105.51 15.1412 105.379 14.6374 105.12 14.2173C104.817 13.7095 104.382 13.4556 103.82 13.4556C103.235 13.4556 102.792 13.7095 102.488 14.2173C102.228 14.6374 102.099 15.1493 102.099 15.7543C102.099 16.3419 102.229 16.8456 102.488 17.2657C102.803 17.7735 103.241 18.0274 103.806 18.0274C104.36 18.0274 104.793 17.7695 105.107 17.2522C105.377 16.824 105.51 16.3162 105.51 15.7287Z" fill="white"/>
<path d="M114.041 18.9188H112.737L112.629 18.1854H112.589C112.143 18.7703 111.507 19.0633 110.681 19.0633C110.065 19.0633 109.566 18.8702 109.191 18.4866C108.85 18.1382 108.68 17.7046 108.68 17.19C108.68 16.4121 109.012 15.8192 109.681 15.4086C110.349 14.998 111.288 14.7967 112.497 14.8062V14.6873C112.497 13.8486 112.046 13.4299 111.141 13.4299C110.497 13.4299 109.929 13.5879 109.439 13.9013L109.144 12.9721C109.75 12.606 110.5 12.4224 111.384 12.4224C113.09 12.4224 113.946 13.3003 113.946 15.0561V17.4007C113.946 18.0369 113.978 18.5434 114.041 18.9188ZM112.533 16.7308V15.7489C110.932 15.7219 110.131 16.1501 110.131 17.032C110.131 17.3643 110.223 17.6128 110.41 17.7789C110.597 17.945 110.835 18.0274 111.119 18.0274C111.438 18.0274 111.736 17.9288 112.007 17.733C112.28 17.5358 112.448 17.2859 112.51 16.9793C112.525 16.9105 112.533 16.8267 112.533 16.7308Z" fill="white"/>
<path d="M122.296 18.9186H121.008L120.94 17.8961H120.9C120.488 18.6741 119.787 19.0631 118.803 19.0631C118.016 19.0631 117.36 18.7619 116.841 18.1595C116.322 17.5571 116.062 16.7751 116.062 15.8148C116.062 14.7843 116.344 13.9496 116.909 13.3122C117.456 12.7179 118.127 12.4207 118.924 12.4207C119.801 12.4207 120.415 12.7084 120.764 13.2851H120.792V9.63037H122.245V17.2033C122.245 17.8232 122.261 18.3945 122.296 18.9186ZM120.792 16.2335V15.172C120.792 14.9883 120.778 14.8397 120.752 14.7262C120.67 14.3859 120.494 14.0996 120.227 13.8686C119.956 13.6377 119.631 13.5215 119.255 13.5215C118.714 13.5215 118.29 13.7308 117.978 14.1509C117.669 14.5709 117.513 15.1071 117.513 15.7622C117.513 16.3916 117.661 16.9021 117.959 17.2951C118.273 17.7138 118.697 17.9232 119.228 17.9232C119.704 17.9232 120.085 17.7489 120.375 17.3991C120.655 17.0763 120.792 16.6873 120.792 16.2335Z" fill="white"/>
<path d="M134.708 15.6828C134.708 16.6619 134.421 17.4642 133.848 18.0936C133.247 18.7405 132.452 19.0633 131.456 19.0633C130.498 19.0633 129.735 18.7541 129.164 18.1328C128.596 17.5128 128.312 16.7308 128.312 15.7881C128.312 14.8021 128.605 13.9931 129.192 13.3651C129.779 12.7371 130.569 12.4224 131.565 12.4224C132.522 12.4224 133.294 12.7317 133.876 13.3516C134.43 13.954 134.708 14.7319 134.708 15.6828ZM133.204 15.7287C133.204 15.1412 133.074 14.6374 132.815 14.2173C132.508 13.7095 132.076 13.4556 131.511 13.4556C130.929 13.4556 130.486 13.7095 130.18 14.2173C129.919 14.6374 129.791 15.1493 129.791 15.7543C129.791 16.3419 129.921 16.8456 130.18 17.2657C130.494 17.7735 130.932 18.0274 131.497 18.0274C132.051 18.0274 132.488 17.7695 132.801 17.2522C133.068 16.824 133.204 16.3162 133.204 15.7287Z" fill="white"/>
<path d="M142.515 18.9185H141.065V15.2718C141.065 14.1481 140.627 13.5863 139.748 13.5863C139.317 13.5863 138.969 13.7402 138.7 14.0495C138.432 14.3588 138.297 14.7235 138.297 15.1408V18.9171H136.844V14.371C136.844 13.8118 136.828 13.2054 136.793 12.549H138.067L138.135 13.5444H138.175C138.346 13.2351 138.598 12.9798 138.928 12.7759C139.322 12.5382 139.762 12.418 140.245 12.418C140.853 12.418 141.36 12.6098 141.763 12.9947C142.266 13.466 142.515 14.1697 142.515 15.1043V18.9185Z" fill="white"/>
<path d="M152.286 13.6122H150.687V16.7051C150.687 17.4911 150.971 17.8842 151.533 17.8842C151.794 17.8842 152.01 17.8626 152.18 17.818L152.218 18.8917C151.931 18.9971 151.554 19.0498 151.09 19.0498C150.517 19.0498 150.071 18.8796 149.748 18.5392C149.424 18.1989 149.263 17.6262 149.263 16.8226V13.6122H148.309V12.5519H149.263V11.385L150.686 10.9663V12.5506H152.284V13.6122H152.286Z" fill="white"/>
<path d="M159.972 18.9186H158.519V15.2989C158.519 14.1576 158.081 13.5863 157.204 13.5863C156.531 13.5863 156.071 13.9172 155.819 14.579C155.776 14.7181 155.751 14.8883 155.751 15.0882V18.9172H154.301V9.63037H155.751V13.4675H155.779C156.236 12.7692 156.891 12.4207 157.74 12.4207C158.342 12.4207 158.839 12.6125 159.234 12.9975C159.725 13.4769 159.972 14.1901 159.972 15.1328V18.9186Z" fill="white"/>
<path d="M167.899 15.4342C167.899 15.6881 167.88 15.9015 167.845 16.0757H163.491C163.511 16.7051 163.719 17.1846 164.122 17.5168C164.49 17.814 164.965 17.9625 165.547 17.9625C166.191 17.9625 166.779 17.8626 167.308 17.6614L167.535 18.6446C166.916 18.9066 166.187 19.0376 165.344 19.0376C164.332 19.0376 163.536 18.7472 162.96 18.1665C162.38 17.5857 162.094 16.8064 162.094 15.8286C162.094 14.8683 162.361 14.0687 162.9 13.4312C163.462 12.7505 164.223 12.4102 165.183 12.4102C166.122 12.4102 166.835 12.7505 167.318 13.4312C167.707 13.9715 167.899 14.64 167.899 15.4342ZM166.514 15.0682C166.525 14.6481 166.43 14.2862 166.233 13.9809C165.981 13.5879 165.597 13.3907 165.078 13.3907C164.604 13.3907 164.217 13.5825 163.922 13.9674C163.681 14.274 163.539 14.64 163.491 15.0682H166.514Z" fill="white"/>
</svg>
