<svg width="187" height="55" viewBox="0 0 187 55" fill="none" xmlns="http://www.w3.org/2000/svg">
<path d="M180.085 54.8003H7.16672C3.36425 54.8003 0.25 51.7597 0.25 48.0472V7.52871C0.25 3.8162 3.36425 0.775631 7.16672 0.775631H180.085C183.887 0.775631 187.001 3.8162 187.001 7.52871V48.0472C187.001 51.7597 183.887 54.8003 180.085 54.8003Z" fill="#202430"/>
<path d="M180.085 1.85781C183.287 1.85781 185.893 4.40203 185.893 7.52871V48.0472C185.893 51.1739 183.287 53.7181 180.085 53.7181H7.16672C3.96428 53.7181 1.3584 51.1739 1.3584 48.0472V7.52871C1.3584 4.40203 3.96428 1.85781 7.16672 1.85781H180.085ZM180.085 0.775631H7.16672C3.36425 0.775631 0.25 3.8162 0.25 7.52871V48.0472C0.25 51.7597 3.36425 54.8003 7.16672 54.8003H180.085C183.887 54.8003 187.001 51.7597 187.001 48.0472V7.52871C187.001 3.8162 183.887 0.775631 180.085 0.775631Z" fill="#A6A6A6"/>
<path d="M65.8392 14.6112C65.8392 15.739 65.4934 16.6422 64.8121 17.3159C64.0287 18.1144 63.0085 18.5162 61.7583 18.5162C60.5635 18.5162 59.5433 18.1077 58.7063 17.3024C57.8677 16.4852 57.4492 15.4824 57.4492 14.282C57.4492 13.0817 57.8677 12.0788 58.7063 11.2685C59.5433 10.4564 60.5635 10.0479 61.7583 10.0479C62.3532 10.0479 62.9203 10.1677 63.4616 10.3906C64.0011 10.6151 64.4403 10.919 64.7585 11.2938L64.0357 12.0062C63.4806 11.3664 62.7249 11.0507 61.7583 11.0507C60.8868 11.0507 60.1312 11.3478 59.4897 11.9472C58.855 12.5482 58.5369 13.3265 58.5369 14.282C58.5369 15.2376 58.855 16.0226 59.4897 16.6237C60.1312 17.2162 60.8868 17.5201 61.7583 17.5201C62.6834 17.5201 63.4616 17.2162 64.0754 16.6169C64.4801 16.2202 64.71 15.6732 64.7706 14.9742H61.7583V13.9984H65.7769C65.8254 14.2094 65.8392 14.4137 65.8392 14.6112Z" fill="white" stroke="white" stroke-width="0.146508" stroke-miterlimit="10"/>
<path d="M72.2184 11.2273H68.4436V13.7935H71.8467V14.7693H68.4436V17.3355H72.2184V18.3299H67.375V10.2329H72.2184V11.2273Z" fill="white" stroke="white" stroke-width="0.146508" stroke-miterlimit="10"/>
<path d="M76.716 18.3299H75.6474V11.2273H73.332V10.2329H79.0331V11.2273H76.716V18.3299Z" fill="white" stroke="white" stroke-width="0.146508" stroke-miterlimit="10"/>
<path d="M83.1641 18.3299V10.2329H84.231V18.3299H83.1641Z" fill="white" stroke="white" stroke-width="0.146508" stroke-miterlimit="10"/>
<path d="M88.9543 18.3299H87.8943V11.2273H85.5703V10.2329H91.2783V11.2273H88.9543V18.3299Z" fill="white" stroke="white" stroke-width="0.146508" stroke-miterlimit="10"/>
<path d="M102.075 17.2884C101.257 18.1072 100.244 18.5157 99.035 18.5157C97.8194 18.5157 96.8061 18.1072 95.9882 17.2884C95.172 16.4712 94.7656 15.4684 94.7656 14.2815C94.7656 13.0947 95.172 12.0919 95.9882 11.2747C96.8061 10.4559 97.8194 10.0474 99.035 10.0474C100.237 10.0474 101.25 10.4559 102.068 11.2815C102.891 12.1054 103.297 13.1014 103.297 14.2815C103.297 15.4684 102.891 16.4712 102.075 17.2884ZM96.7784 16.6097C97.394 17.2158 98.1427 17.5196 99.035 17.5196C99.9203 17.5196 100.676 17.2158 101.285 16.6097C101.898 16.0036 102.21 15.2253 102.21 14.2815C102.21 13.3378 101.898 12.5595 101.285 11.9534C100.676 11.3473 99.9203 11.0434 99.035 11.0434C98.1427 11.0434 97.394 11.3473 96.7784 11.9534C96.1645 12.5595 95.8533 13.3378 95.8533 14.2815C95.8533 15.2253 96.1645 16.0036 96.7784 16.6097Z" fill="white" stroke="white" stroke-width="0.146508" stroke-miterlimit="10"/>
<path d="M104.793 18.3299V10.2329H106.09L110.122 16.5302H110.169L110.122 14.9736V10.2329H111.189V18.3299H110.076L105.853 11.722H105.806L105.853 13.2853V18.3299H104.793Z" fill="white" stroke="white" stroke-width="0.146508" stroke-miterlimit="10"/>
<path d="M94.5012 30.1549C91.2521 30.1549 88.5978 32.5692 88.5978 35.9001C88.5978 39.2041 91.2521 41.6436 94.5012 41.6436C97.7573 41.6436 100.412 39.2041 100.412 35.9001C100.412 32.5692 97.7573 30.1549 94.5012 30.1549ZM94.5012 39.3813C92.7184 39.3813 91.1847 37.9446 91.1847 35.9001C91.1847 33.8286 92.7184 32.4172 94.5012 32.4172C96.284 32.4172 97.8247 33.8286 97.8247 35.9001C97.8247 37.9446 96.284 39.3813 94.5012 39.3813ZM81.6206 30.1549C78.3645 30.1549 75.7171 32.5692 75.7171 35.9001C75.7171 39.2041 78.3645 41.6436 81.6206 41.6436C84.8749 41.6436 87.524 39.2041 87.524 35.9001C87.524 32.5692 84.8749 30.1549 81.6206 30.1549ZM81.6206 39.3813C79.836 39.3813 78.2971 37.9446 78.2971 35.9001C78.2971 33.8286 79.836 32.4172 81.6206 32.4172C83.4033 32.4172 84.9371 33.8286 84.9371 35.9001C84.9371 37.9446 83.4033 39.3813 81.6206 39.3813ZM66.2931 31.9158V34.357H72.264C72.0893 35.7212 71.6224 36.724 70.9066 37.4229C70.0351 38.2671 68.6777 39.2041 66.2931 39.2041C62.6186 39.2041 59.7413 36.3087 59.7413 32.7211C59.7413 29.1335 62.6186 26.2381 66.2931 26.2381C68.2799 26.2381 69.7255 26.9962 70.7924 27.9787L72.5545 26.2584C71.0622 24.8673 69.0771 23.7986 66.2931 23.7986C61.2543 23.7986 57.0195 27.8015 57.0195 32.7211C57.0195 37.6407 61.2543 41.6436 66.2931 41.6436C69.0166 41.6436 71.0622 40.7725 72.6703 39.1382C74.3182 37.5293 74.8318 35.267 74.8318 33.4403C74.8318 32.873 74.7834 32.3514 74.6969 31.9158H66.2931ZM128.969 33.8083C128.483 32.5236 126.984 30.1549 123.93 30.1549C120.904 30.1549 118.385 32.4831 118.385 35.9001C118.385 39.118 120.878 41.6436 124.221 41.6436C126.923 41.6436 128.483 40.0347 129.125 39.0977L127.119 37.7927C126.45 38.7482 125.538 39.3813 124.221 39.3813C122.912 39.3813 121.973 38.7955 121.371 37.6407L129.24 34.4617L128.969 33.8083ZM120.946 35.7212C120.878 33.5061 122.708 32.3716 124.018 32.3716C125.045 32.3716 125.917 32.873 126.207 33.5906L120.946 35.7212ZM114.549 41.2941H117.136V24.4114H114.549V41.2941ZM110.313 31.4346H110.226C109.645 30.7627 108.537 30.1549 107.133 30.1549C104.186 30.1549 101.492 32.6806 101.492 35.9187C101.492 39.1382 104.186 41.6436 107.133 41.6436C108.537 41.6436 109.645 41.0308 110.226 40.3386H110.313V41.1624C110.313 43.3589 109.111 44.539 107.173 44.539C105.592 44.539 104.612 43.4247 104.207 42.4877L101.957 43.4045C102.606 44.9273 104.323 46.8013 107.173 46.8013C110.206 46.8013 112.765 45.059 112.765 40.8197V30.5044H110.313V31.4346ZM107.354 39.3813C105.571 39.3813 104.079 37.9243 104.079 35.9187C104.079 33.8944 105.571 32.4172 107.354 32.4172C109.111 32.4172 110.496 33.8944 110.496 35.9187C110.496 37.9243 109.111 39.3813 107.354 39.3813ZM141.08 24.4114H134.893V41.2941H137.473V34.8973H141.08C143.945 34.8973 146.755 32.873 146.755 29.6535C146.755 26.4357 143.938 24.4114 141.08 24.4114ZM141.148 32.5489H137.473V26.7598H141.148C143.074 26.7598 144.174 28.3215 144.174 29.6535C144.174 30.9602 143.074 32.5489 141.148 32.5489ZM157.096 30.1228C155.232 30.1228 153.293 30.9265 152.496 32.7076L154.786 33.6446C155.278 32.7076 156.185 32.4037 157.142 32.4037C158.481 32.4037 159.838 33.1887 159.859 34.5748V34.7521C159.392 34.4887 158.393 34.0987 157.163 34.0987C154.697 34.0987 152.185 35.424 152.185 37.8973C152.185 40.1596 154.205 41.6166 156.475 41.6166C158.211 41.6166 159.169 40.8518 159.771 39.9621H159.859V41.2671H162.351V34.7909C162.351 31.7976 160.061 30.1228 157.096 30.1228ZM156.785 39.3746C155.941 39.3746 154.765 38.966 154.765 37.9446C154.765 36.6379 156.231 36.1365 157.5 36.1365C158.636 36.1365 159.169 36.3813 159.859 36.7037C159.657 38.2671 158.279 39.3746 156.785 39.3746ZM171.429 30.4926L168.463 37.8112H168.375L165.309 30.4926H162.527L167.134 40.7201L164.505 46.4113H167.201L174.299 30.4926H171.429ZM148.173 41.2941H150.76V24.4114H148.173V41.2941Z" fill="white"/>
<path d="M14.6845 10.9576C14.2781 11.373 14.043 12.0196 14.043 12.8569V42.7258C14.043 43.5632 14.2781 44.2098 14.6845 44.6251L14.7848 44.7163L31.9279 27.9855V27.5905L14.7848 10.8597L14.6845 10.9576Z" fill="url(#paint0_linear_1865_23713)"/>
<path d="M37.6338 33.5654L31.9258 27.9857V27.5906L37.6407 22.0109L37.7687 22.0835L44.5367 25.8433C46.4682 26.9103 46.4682 28.6661 44.5367 29.7398L37.7687 33.4928L37.6338 33.5654Z" fill="url(#paint1_linear_1865_23713)"/>
<path d="M37.7699 33.4924L31.927 27.7877L14.6836 44.6249C15.3251 45.2833 16.3713 45.3626 17.5609 44.7042L37.7699 33.4924Z" fill="url(#paint2_linear_1865_23713)"/>
<path d="M37.7699 22.0834L17.5609 10.8716C16.3713 10.2199 15.3251 10.2993 14.6836 10.9577L31.927 27.7881L37.7699 22.0834Z" fill="url(#paint3_linear_1865_23713)"/>
<defs>
<linearGradient id="paint0_linear_1865_23713" x1="30.4058" y1="43.0369" x2="7.74568" y2="19.8277" gradientUnits="userSpaceOnUse">
<stop stop-color="#00A0FF"/>
<stop offset="0.0066" stop-color="#00A1FF"/>
<stop offset="0.2601" stop-color="#00BEFF"/>
<stop offset="0.5122" stop-color="#00D2FF"/>
<stop offset="0.7604" stop-color="#00DFFF"/>
<stop offset="1" stop-color="#00E3FF"/>
</linearGradient>
<linearGradient id="paint1_linear_1865_23713" x1="47.0518" y1="27.7863" x2="13.5792" y2="27.7863" gradientUnits="userSpaceOnUse">
<stop stop-color="#FFE000"/>
<stop offset="0.4087" stop-color="#FFBD00"/>
<stop offset="0.7754" stop-color="#FFA500"/>
<stop offset="1" stop-color="#FF9C00"/>
</linearGradient>
<linearGradient id="paint2_linear_1865_23713" x1="34.5927" y1="24.6866" x2="3.86374" y2="-6.78694" gradientUnits="userSpaceOnUse">
<stop stop-color="#FF3A44"/>
<stop offset="1" stop-color="#C31162"/>
</linearGradient>
<linearGradient id="paint3_linear_1865_23713" x1="10.3431" y1="54.5625" x2="24.0649" y2="40.5082" gradientUnits="userSpaceOnUse">
<stop stop-color="#32A071"/>
<stop offset="0.0685" stop-color="#2DA771"/>
<stop offset="0.4762" stop-color="#15CF74"/>
<stop offset="0.8009" stop-color="#06E775"/>
<stop offset="1" stop-color="#00F076"/>
</linearGradient>
</defs>
</svg>
