<svg width="748" height="202" viewBox="0 0 748 202" fill="none" xmlns="http://www.w3.org/2000/svg">
<path d="M358.291 137.618V117.165C358.291 84.633 331.968 58.2451 299.504 58.2451H266.831C234.367 58.2451 208.043 84.633 208.043 117.165V142.136C208.043 174.668 234.367 201.055 266.831 201.055H299.504C327.739 201.055 351.328 181.09 356.994 154.493H320.231C315.377 162.867 306.339 168.489 295.993 168.489H270.341C254.862 168.489 242.303 155.91 242.303 140.382V137.618H358.291ZM270.341 90.8118H295.993C310.279 90.8118 322.062 101.52 323.788 115.376H242.535C244.261 101.52 256.056 90.8118 270.341 90.8118Z" fill="#8CD6FE"/>
<path d="M570.993 0.12793H535.41V31.901H570.993V0.12793Z" fill="#8CD6FE"/>
<path d="M748 0.12793H712.418V31.901H748V0.12793Z" fill="#8CD6FE"/>
<path d="M570.997 58.1812H535.414V200.83H570.997V58.1812Z" fill="#8CD6FE"/>
<path d="M645.524 87.65V165.031H692.9V200.613H641.667C624.141 200.613 609.941 186.413 609.941 168.887V87.65H590.375V57.9999H609.941V14.9399H645.524V57.9999H692.9V87.65H645.524Z" fill="#8CD6FE"/>
<path d="M748 58.1812H712.418V200.83H748V58.1812Z" fill="#8CD6FE"/>
<path d="M487.407 58.3696L444.925 165.212H438.309L395.827 58.3696H358.098L412.798 200.829H470.436L525.124 58.3696H487.395H487.407Z" fill="#8CD6FE"/>
<path d="M0 94.686C0 49.0904 36.9624 12.1279 82.5581 12.1279H106.146C149.76 12.1279 185.473 45.9414 188.492 88.789H149.041C145.149 67.3239 126.361 51.0482 103.787 51.0482H84.9169C59.5126 51.0482 38.9202 71.6405 38.9202 97.0448V115.915C38.9202 141.32 59.5126 161.912 84.9169 161.912H103.787C119.049 161.912 132.565 154.482 140.938 143.041H103.787V111.198H188.704V200.832H156.86V176.065C146.835 193.425 125.264 200.832 106.146 200.832H82.5581C36.9624 200.832 0 163.87 0 118.274V94.686Z" fill="#8CD6FE"/>
</svg>
