<svg width="86" height="21" viewBox="0 0 86 21" fill="none" xmlns="http://www.w3.org/2000/svg">
<path d="M38.4483 14.1655V11.9956C38.4483 8.54433 35.6557 5.74485 32.2116 5.74485H28.7453C25.3012 5.74485 22.5085 8.54433 22.5085 11.9956V14.6448C22.5085 18.0961 25.3012 20.8955 28.7453 20.8955H32.2116C35.207 20.8955 37.7096 18.7775 38.3107 15.9558H34.4105C33.8955 16.8442 32.9368 17.4406 31.8391 17.4406H29.1178C27.4756 17.4406 26.1432 16.1061 26.1432 14.4587V14.1655H38.4483ZM29.1178 9.19984H31.8391C33.3547 9.19984 34.6047 10.3359 34.7879 11.8059H26.1678C26.3509 10.3359 27.6022 9.19984 29.1178 9.19984Z" fill="#0B2D50"/>
<path d="M61.0135 0.85247H57.2385V4.22326H61.0135V0.85247Z" fill="#0B2D50"/>
<path d="M79.7915 0.85247H76.0166V4.22326H79.7915V0.85247Z" fill="#0B2D50"/>
<path d="M61.0135 5.73843H57.2385V20.872H61.0135V5.73843Z" fill="#0B2D50"/>
<path d="M68.9205 8.86439V17.0737H73.9467V20.8486H68.5114C66.6521 20.8486 65.1456 19.3421 65.1456 17.4828V8.86439H63.0698V5.71882H65.1456V1.1506H68.9205V5.71882H73.9467V8.86439H68.9205Z" fill="#0B2D50"/>
<path d="M79.7915 5.73843H76.0166V20.872H79.7915V5.73843Z" fill="#0B2D50"/>
<path d="M52.1461 5.75845L47.6392 17.0933H46.9373L42.4304 5.75845H38.4277L44.2309 20.872H50.3456L56.1475 5.75845H52.1449H52.1461Z" fill="#0B2D50"/>
<path d="M84.3623 18.8016C84.3623 18.562 84.2699 18.3984 84.0875 18.3118C83.9421 18.2432 83.7735 18.2432 83.6696 18.2432H82.8096V19.8677H83.276V19.3589H83.6604L83.9282 19.8698H84.4362L84.1048 19.2533C84.2445 19.1773 84.3646 19.0623 84.3646 18.8026L84.3623 18.8005V18.8016ZM83.9236 18.8016C83.9236 18.8734 83.8936 18.9187 83.8289 18.942C83.7701 18.9652 83.6962 18.9652 83.6431 18.9652H83.2737V18.638H83.6454C83.8209 18.638 83.9213 18.6654 83.9213 18.8016H83.9236Z" fill="#0B2D50"/>
<path d="M83.6229 17.2422C82.6223 17.2422 81.8086 18.0558 81.8086 19.0565C81.8086 20.0572 82.6223 20.8708 83.6229 20.8708C84.6235 20.8708 85.4371 20.0572 85.4371 19.0565C85.4371 18.0558 84.6235 17.2422 83.6229 17.2422ZM85.0919 19.0565C85.0919 19.8668 84.4332 20.526 83.6229 20.526C82.8125 20.526 82.1539 19.8668 82.1539 19.0565C82.1539 18.2462 82.8125 17.5881 83.6229 17.5881C84.4332 17.5881 85.0919 18.2473 85.0919 19.0565Z" fill="#0B2D50"/>
<path d="M0.437012 9.61108C0.437012 4.77386 4.35834 0.852531 9.19556 0.852531H11.698C16.325 0.852531 20.1137 4.43978 20.434 8.98547H16.2487C15.8358 6.70825 13.8426 4.98156 11.4478 4.98156H9.44581C6.75068 4.98156 4.56604 7.1662 4.56604 9.86133V11.8633C4.56604 14.5584 6.75068 16.743 9.44581 16.743H11.4478C13.0668 16.743 14.5007 15.9548 15.3891 14.7411H11.4478V11.3628H20.4566V20.8721H17.0783V18.2445C16.0147 20.0863 13.7262 20.8721 11.698 20.8721H9.19556C4.35834 20.8721 0.437012 16.9508 0.437012 12.1135V9.61108Z" fill="#0B2D50"/>
</svg>
